<svg xmlns="http://www.w3.org/2000/svg" viewBox="0 0 64 64"><defs><style>.cls-1{isolation:isolate;}.cls-2{mix-blend-mode:multiply;}.cls-3{fill:#f4cd51;}.cls-4{fill:#f5f1e0;}.cls-5{fill:#ea6e60;}.cls-6{fill:none;stroke:#3b342f;stroke-linecap:round;stroke-linejoin:round;stroke-width:2px;}</style></defs><title>security</title><g class="cls-1"><g id="icons" class="cls-2"><g id="_Group_" data-name="&lt;Group&gt;"><path class="cls-3" d="M41.16,35.37a2,2,0,0,1,.47,2.79l-10,14a2,2,0,0,1-1.47.83H30a2,2,0,0,1-1.41-.59l-6-6a2,2,0,0,1,2.82-2.82l4.33,4.33,8.63-12.08A2,2,0,0,1,41.16,35.37Z"/><path class="cls-4" d="M55,29V59a4,4,0,0,1-4,4H13a4,4,0,0,1-4-4V29a4,4,0,0,1,4-4H51A4,4,0,0,1,55,29ZM41.63,38.16a2,2,0,1,0-3.26-2.32L29.74,47.92l-4.33-4.33a2,2,0,0,0-2.82,2.82l6,6A2,2,0,0,0,30,53h.16a2,2,0,0,0,1.47-.83Z"/><path class="cls-5" d="M49,18v7H43V18a11,11,0,0,0-22,0v7H15V18a17,17,0,0,1,34,0Z"/><path class="cls-6" d="M49,25h2a4,4,0,0,1,4,4V59a4,4,0,0,1-4,4H13a4,4,0,0,1-4-4V29a4,4,0,0,1,4-4H49Z"/><path class="cls-6" d="M15,25V18a17,17,0,0,1,34,0v7"/><path class="cls-6" d="M21,25V18a11,11,0,0,1,22,0v7"/><path class="cls-6" d="M30,53a2,2,0,0,1-1.41-.59l-6-6a2,2,0,0,1,2.82-2.82l4.33,4.33,8.63-12.08a2,2,0,1,1,3.26,2.32l-10,14a2,2,0,0,1-1.47.83Z"/></g></g></g></svg>